<svg width="24" height="24" viewBox="0 0 60 60" fill="none" xmlns="http://www.w3.org/2000/svg">
<g clip-path="url(#clip0_5_5639)">
<path d="M22.5075 19.2857C22.5075 20.9907 21.9149 22.6258 20.86 23.8314C19.8051 25.037 18.3743 25.7143 16.8825 25.7143C15.3907 25.7143 13.9599 25.037 12.905 23.8314C11.8501 22.6258 11.2575 20.9907 11.2575 19.2857C11.2575 17.5807 11.8501 15.9456 12.905 14.74C13.9599 13.5344 15.3907 12.8571 16.8825 12.8571C18.3743 12.8571 19.8051 13.5344 20.86 14.74C21.9149 15.9456 22.5075 17.5807 22.5075 19.2857Z" fill="white"/>
<path d="M7.50751 0C5.51838 0 3.61073 0.903059 2.20421 2.51051C0.797684 4.11797 0.00750732 6.29814 0.00750732 8.57143V51.4286C0.00750732 53.7019 0.797684 55.882 2.20421 57.4895C3.61073 59.0969 5.51838 60 7.50751 60H52.5075C54.4966 60 56.4043 59.0969 57.8108 57.4895C59.2173 55.882 60.0075 53.7019 60.0075 51.4286V8.57143C60.0075 6.29814 59.2173 4.11797 57.8108 2.51051C56.4043 0.903059 54.4966 0 52.5075 0H7.50751ZM52.5075 4.28571C53.5021 4.28571 54.4559 4.73724 55.1592 5.54097C55.8624 6.3447 56.2575 7.43479 56.2575 8.57143V36.4286L42.0938 28.0843C41.7421 27.883 41.3439 27.8131 40.9556 27.8846C40.5673 27.9562 40.2085 28.1654 39.93 28.4829L26.0175 44.3829L16.0425 36.7886C15.6824 36.5145 15.2504 36.3913 14.8198 36.4397C14.3892 36.4881 13.9865 36.7053 13.68 37.0543L3.75751 47.1429V8.57143C3.75751 7.43479 4.1526 6.3447 4.85586 5.54097C5.55912 4.73724 6.51295 4.28571 7.50751 4.28571H52.5075Z" fill="white"/>
</g>
<defs>
<clipPath id="clip0_5_5639">
<rect width="60" height="60" fill="white"/>
</clipPath>
</defs>
</svg>
