<svg width="390" height="250" viewBox="0 0 390 250" fill="none" xmlns="http://www.w3.org/2000/svg">
<path fill-rule="evenodd" clip-rule="evenodd" d="M-13 16C-13 8.45753 -13 4.68629 -10.6569 2.34315C-8.31371 0 -4.54247 0 3 0H384C406.627 0 417.941 0 424.971 7.02944C432 14.0589 432 25.3726 432 48V173.913C424.664 173.913 418.716 178.78 418.716 184.783C418.716 190.786 424.664 195.652 432 195.652V234C432 241.542 432 245.314 429.657 247.657C427.314 250 423.542 250 416 250H35C12.3726 250 1.05887 250 -5.97056 242.971C-13 235.941 -13 224.627 -13 202V195.652C-5.66368 195.652 0.283583 190.786 0.283583 184.783C0.283583 178.78 -5.66368 173.913 -13 173.913V16Z" fill="#313133"/>
</svg>
