<svg width="327" height="250" viewBox="0 0 327 230" fill="none" xmlns="http://www.w3.org/2000/svg">
<path fill-rule="evenodd" clip-rule="evenodd" d="M0 16C0 8.45753 0 4.68629 2.34315 2.34315C4.68629 0 8.45753 0 16 0H279C301.627 0 312.941 0 319.971 7.02944C327 14.0589 327 25.3726 327 48V160C321.609 160 317.239 164.477 317.239 170C317.239 175.523 321.609 180 327 180V214C327 221.542 327 225.314 324.657 227.657C322.314 230 318.542 230 311 230H48C25.3726 230 14.0589 230 7.02944 222.971C0 215.941 0 204.627 0 182V180C5.39096 180 9.76119 175.523 9.76119 170C9.76119 164.477 5.39096 160 0 160V16Z" fill="#313133"/>
</svg>
