<svg width="390" height="250" viewBox="0 0 390 250" fill="none" xmlns="http://www.w3.org/2000/svg">
<path fill-rule="evenodd" clip-rule="evenodd" d="M-88 16C-88 8.45753 -88 4.68629 -85.6569 2.34315C-83.3137 0 -79.5425 0 -72 0H364C386.627 0 397.941 0 404.971 7.02944C412 14.0589 412 25.3726 412 48V173.913C403.757 173.913 397.075 178.78 397.075 184.783C397.075 190.786 403.757 195.652 412 195.652V234C412 241.542 412 245.314 409.657 247.657C407.314 250 403.542 250 396 250H-40C-62.6274 250 -73.9411 250 -80.9706 242.971C-88 235.941 -88 224.627 -88 202V195.652C-79.7569 195.652 -73.0746 190.786 -73.0746 184.783C-73.0746 178.78 -79.7569 173.913 -88 173.913V16Z" fill="#313133"/>
</svg>
